<mxfile host="Electron" agent="Mozilla/5.0 (Windows NT 10.0; Win64; x64) AppleWebKit/537.36 (KHTML, like Gecko) draw.io/28.2.5 Chrome/138.0.7204.251 Electron/37.6.1 Safari/537.36" version="28.2.5">
  <diagram id="fhuW-SksWIT_uSwotIcj" name="Page-1">
    <mxGraphModel dx="1042" dy="626" grid="1" gridSize="10" guides="1" tooltips="1" connect="1" arrows="1" fold="1" page="1" pageScale="1" pageWidth="1100" pageHeight="850" math="0" shadow="0">
      <root>
        <mxCell id="0" />
        <mxCell id="1" parent="0" />
        <mxCell id="2qniT-uCGRvmTBl2dVnh-1" value="&lt;font style=&quot;font-size: 18px;&quot;&gt;&lt;i style=&quot;&quot;&gt;ViewModel&lt;/i&gt;&lt;/font&gt;" style="rounded=1;whiteSpace=wrap;html=1;fillColor=#008a00;strokeColor=#005700;fontColor=#ffffff;" parent="1" vertex="1">
          <mxGeometry x="350" y="90" width="150" height="60" as="geometry" />
        </mxCell>
        <mxCell id="2qniT-uCGRvmTBl2dVnh-2" value="&lt;font style=&quot;font-size: 18px;&quot;&gt;&lt;i style=&quot;&quot;&gt;View&lt;/i&gt;&lt;/font&gt;" style="rounded=1;whiteSpace=wrap;html=1;fillColor=#d5e8d4;strokeColor=#82b366;" parent="1" vertex="1">
          <mxGeometry x="150" y="250" width="150" height="60" as="geometry" />
        </mxCell>
        <mxCell id="2qniT-uCGRvmTBl2dVnh-3" value="&lt;font style=&quot;font-size: 18px;&quot;&gt;&lt;i style=&quot;&quot;&gt;Model&lt;/i&gt;&lt;/font&gt;" style="rounded=1;whiteSpace=wrap;html=1;fillColor=#d5e8d4;strokeColor=#82b366;" parent="1" vertex="1">
          <mxGeometry x="550" y="250" width="150" height="60" as="geometry" />
        </mxCell>
        <mxCell id="2qniT-uCGRvmTBl2dVnh-9" value="" style="endArrow=classic;html=1;rounded=0;exitX=0.75;exitY=0;exitDx=0;exitDy=0;dashed=1;" parent="1" source="2qniT-uCGRvmTBl2dVnh-2" edge="1">
          <mxGeometry width="50" height="50" relative="1" as="geometry">
            <mxPoint x="300" y="190" as="sourcePoint" />
            <mxPoint x="349" y="120" as="targetPoint" />
            <Array as="points">
              <mxPoint x="263" y="120" />
            </Array>
          </mxGeometry>
        </mxCell>
        <mxCell id="2qniT-uCGRvmTBl2dVnh-12" value="&lt;font style=&quot;font-size: 14px;&quot;&gt;корисничке акције&lt;/font&gt;" style="edgeLabel;html=1;align=center;verticalAlign=middle;resizable=0;points=[];" parent="2qniT-uCGRvmTBl2dVnh-9" vertex="1" connectable="0">
          <mxGeometry x="-0.0005" y="1" relative="1" as="geometry">
            <mxPoint y="40" as="offset" />
          </mxGeometry>
        </mxCell>
        <mxCell id="2qniT-uCGRvmTBl2dVnh-10" value="" style="endArrow=classic;html=1;rounded=0;exitX=0.25;exitY=1;exitDx=0;exitDy=0;entryX=1;entryY=0.5;entryDx=0;entryDy=0;" parent="1" source="2qniT-uCGRvmTBl2dVnh-1" target="2qniT-uCGRvmTBl2dVnh-2" edge="1">
          <mxGeometry width="50" height="50" relative="1" as="geometry">
            <mxPoint x="360" y="180" as="sourcePoint" />
            <mxPoint x="410" y="130" as="targetPoint" />
            <Array as="points">
              <mxPoint x="388" y="280" />
            </Array>
          </mxGeometry>
        </mxCell>
        <mxCell id="2qniT-uCGRvmTBl2dVnh-11" value="&lt;font style=&quot;font-size: 14px;&quot;&gt;&lt;i&gt;ViewModel&lt;/i&gt; подаци&lt;/font&gt;" style="edgeLabel;html=1;align=center;verticalAlign=middle;resizable=0;points=[];" parent="2qniT-uCGRvmTBl2dVnh-10" vertex="1" connectable="0">
          <mxGeometry x="0.355" y="1" relative="1" as="geometry">
            <mxPoint x="20" y="-61" as="offset" />
          </mxGeometry>
        </mxCell>
        <mxCell id="2qniT-uCGRvmTBl2dVnh-13" value="" style="endArrow=classic;html=1;rounded=0;entryX=0.75;entryY=1;entryDx=0;entryDy=0;exitX=0.5;exitY=1;exitDx=0;exitDy=0;" parent="1" source="2qniT-uCGRvmTBl2dVnh-3" target="2qniT-uCGRvmTBl2dVnh-1" edge="1">
          <mxGeometry width="50" height="50" relative="1" as="geometry">
            <mxPoint x="590" y="250" as="sourcePoint" />
            <mxPoint x="430" y="160" as="targetPoint" />
            <Array as="points">
              <mxPoint x="625" y="340" />
              <mxPoint x="463" y="340" />
            </Array>
          </mxGeometry>
        </mxCell>
        <mxCell id="2qniT-uCGRvmTBl2dVnh-14" value="&lt;font style=&quot;font-size: 14px;&quot;&gt;подаци из извора података&lt;/font&gt;" style="edgeLabel;html=1;align=center;verticalAlign=middle;resizable=0;points=[];" parent="2qniT-uCGRvmTBl2dVnh-13" vertex="1" connectable="0">
          <mxGeometry x="-0.0477" relative="1" as="geometry">
            <mxPoint x="-13" y="-30" as="offset" />
          </mxGeometry>
        </mxCell>
        <mxCell id="2qniT-uCGRvmTBl2dVnh-15" value="" style="endArrow=classic;html=1;rounded=0;exitX=0.25;exitY=0;exitDx=0;exitDy=0;entryX=0.25;entryY=0;entryDx=0;entryDy=0;dashed=1;" parent="1" source="2qniT-uCGRvmTBl2dVnh-1" target="2qniT-uCGRvmTBl2dVnh-2" edge="1">
          <mxGeometry width="50" height="50" relative="1" as="geometry">
            <mxPoint x="400" y="190" as="sourcePoint" />
            <mxPoint x="450" y="140" as="targetPoint" />
            <Array as="points">
              <mxPoint x="388" y="70" />
              <mxPoint x="188" y="70" />
              <mxPoint x="188" y="105" />
            </Array>
          </mxGeometry>
        </mxCell>
        <mxCell id="2qniT-uCGRvmTBl2dVnh-16" value="&lt;font style=&quot;font-size: 14px;&quot;&gt;промене релевантних података&lt;/font&gt;" style="edgeLabel;html=1;align=center;verticalAlign=middle;resizable=0;points=[];" parent="2qniT-uCGRvmTBl2dVnh-15" vertex="1" connectable="0">
          <mxGeometry x="0.2015" y="-2" relative="1" as="geometry">
            <mxPoint x="4" y="-1" as="offset" />
          </mxGeometry>
        </mxCell>
        <mxCell id="2qniT-uCGRvmTBl2dVnh-17" value="" style="endArrow=classic;html=1;rounded=0;exitX=1;exitY=0.5;exitDx=0;exitDy=0;entryX=0.25;entryY=0;entryDx=0;entryDy=0;" parent="1" source="2qniT-uCGRvmTBl2dVnh-1" target="2qniT-uCGRvmTBl2dVnh-3" edge="1">
          <mxGeometry width="50" height="50" relative="1" as="geometry">
            <mxPoint x="420" y="190" as="sourcePoint" />
            <mxPoint x="470" y="140" as="targetPoint" />
            <Array as="points">
              <mxPoint x="588" y="120" />
            </Array>
          </mxGeometry>
        </mxCell>
        <mxCell id="2qniT-uCGRvmTBl2dVnh-18" value="&lt;i&gt;&lt;font style=&quot;font-size: 14px;&quot;&gt;ажурирајИзворПодатака()&lt;/font&gt;&lt;/i&gt;" style="edgeLabel;html=1;align=center;verticalAlign=middle;resizable=0;points=[];" parent="2qniT-uCGRvmTBl2dVnh-17" vertex="1" connectable="0">
          <mxGeometry x="0.1519" y="1" relative="1" as="geometry">
            <mxPoint x="1" y="22" as="offset" />
          </mxGeometry>
        </mxCell>
        <mxCell id="2qniT-uCGRvmTBl2dVnh-19" value="" style="endArrow=classic;html=1;rounded=0;exitX=0.88;exitY=0.02;exitDx=0;exitDy=0;entryX=0.75;entryY=0;entryDx=0;entryDy=0;dashed=1;exitPerimeter=0;" parent="1" source="2qniT-uCGRvmTBl2dVnh-3" target="2qniT-uCGRvmTBl2dVnh-1" edge="1">
          <mxGeometry width="50" height="50" relative="1" as="geometry">
            <mxPoint x="740" y="80" as="sourcePoint" />
            <mxPoint x="540" y="240" as="targetPoint" />
            <Array as="points">
              <mxPoint x="680" y="70" />
              <mxPoint x="463" y="70" />
            </Array>
          </mxGeometry>
        </mxCell>
        <mxCell id="2qniT-uCGRvmTBl2dVnh-20" value="&lt;font style=&quot;font-size: 14px;&quot;&gt;промене релевантних података&lt;/font&gt;" style="edgeLabel;html=1;align=center;verticalAlign=middle;resizable=0;points=[];" parent="2qniT-uCGRvmTBl2dVnh-19" vertex="1" connectable="0">
          <mxGeometry x="0.2015" y="-2" relative="1" as="geometry">
            <mxPoint x="59" y="22" as="offset" />
          </mxGeometry>
        </mxCell>
      </root>
    </mxGraphModel>
  </diagram>
</mxfile>
